<?xml version="1.0" standalone="no"?><!DOCTYPE svg PUBLIC "-//W3C//DTD SVG 1.1//EN" "http://www.w3.org/Graphics/SVG/1.1/DTD/svg11.dtd"><svg t="1720351645677" class="icon" viewBox="0 0 1024 1024" version="1.1" xmlns="http://www.w3.org/2000/svg" p-id="4521" xmlns:xlink="http://www.w3.org/1999/xlink" width="128" height="128"><path d="M725.284571 900.242286c9.508571 0 17.773714-3.437714 24.576-10.24a33.499429 33.499429 0 0 0 10.24-24.576c0-9.508571-3.437714-17.554286-10.24-24.064a34.377143 34.377143 0 0 0-24.576-9.728h-353.28V160.914286a36.790857 36.790857 0 0 0-11.776-27.648 39.277714 39.277714 0 0 0-28.16-11.264 37.595429 37.595429 0 0 0-27.648 11.264 37.595429 37.595429 0 0 0-11.264 27.648v699.392c0 10.971429 3.730286 20.333714 11.264 28.16a36.790857 36.790857 0 0 0 27.648 11.776h393.216z" fill="#1296db" p-id="4522"></path></svg>